<?xml version="1.0" encoding="utf-8" standalone="no"?>
<!DOCTYPE svg PUBLIC "-//W3C//DTD SVG 1.1//EN"
  "http://www.w3.org/Graphics/SVG/1.1/DTD/svg11.dtd">
<svg xmlns:xlink="http://www.w3.org/1999/xlink" width="432pt" height="288pt" viewBox="0 0 432 288" xmlns="http://www.w3.org/2000/svg" version="1.1">
 <metadata>
  <rdf:RDF xmlns:dc="http://purl.org/dc/elements/1.1/" xmlns:cc="http://creativecommons.org/ns#" xmlns:rdf="http://www.w3.org/1999/02/22-rdf-syntax-ns#">
   <cc:Work>
    <dc:type rdf:resource="http://purl.org/dc/dcmitype/StillImage"/>
    <dc:date>2023-05-03T11:25:18.160482</dc:date>
    <dc:format>image/svg+xml</dc:format>
    <dc:creator>
     <cc:Agent>
      <dc:title>Matplotlib v3.5.1, https://matplotlib.org/</dc:title>
     </cc:Agent>
    </dc:creator>
   </cc:Work>
  </rdf:RDF>
 </metadata>
 <defs>
  <style type="text/css">*{stroke-linejoin: round; stroke-linecap: butt}</style>
 </defs>
 <g id="figure_1">
  <g id="patch_1">
   <path d="M 0 288 
L 432 288 
L 432 0 
L 0 0 
L 0 288 
z
" style="fill: none"/>
  </g>
  <g id="axes_1">
   <g id="patch_2">
    <path d="M 54 252 
L 388.8 252 
L 388.8 34.56 
L 54 34.56 
z
" style="fill: #ffffff"/>
   </g>
   <g id="PolyCollection_1">
    <defs>
     <path id="m93aba19ac1" d="M 54 -36 
L 54 -36.331734 
L 62.37 -36.442735 
L 70.74 -36.58657 
L 79.11 -36.771331 
L 87.48 -37.00658 
L 95.85 -37.303825 
L 104.22 -37.676528 
L 112.59 -38.139762 
L 120.96 -38.710422 
L 129.33 -39.407894 
L 137.7 -40.253594 
L 146.07 -41.26993 
L 154.44 -42.480375 
L 162.81 -43.910206 
L 171.18 -45.585168 
L 179.55 -47.529321 
L 187.92 -49.765257 
L 196.29 -52.314306 
L 204.66 -55.194842 
L 213.03 -58.418608 
L 221.4 -61.991473 
L 229.77 -65.913982 
L 238.14 -70.178415 
L 246.51 -74.76629 
L 254.88 -79.649449 
L 263.25 -84.790927 
L 271.62 -90.142777 
L 279.99 -95.646075 
L 288.36 -101.23287 
L 296.73 -106.827384 
L 305.1 -112.346011 
L 313.47 -117.700906 
L 321.84 -122.801939 
L 330.21 -127.557896 
L 338.58 -131.87919 
L 346.95 -135.683194 
L 355.32 -138.896413 
L 363.69 -141.452203 
L 372.06 -143.296529 
L 380.43 -144.392644 
L 388.8 -144.72 
L 388.8 -36 
L 388.8 -36 
L 380.43 -36 
L 372.06 -36 
L 363.69 -36 
L 355.32 -36 
L 346.95 -36 
L 338.58 -36 
L 330.21 -36 
L 321.84 -36 
L 313.47 -36 
L 305.1 -36 
L 296.73 -36 
L 288.36 -36 
L 279.99 -36 
L 271.62 -36 
L 263.25 -36 
L 254.88 -36 
L 246.51 -36 
L 238.14 -36 
L 229.77 -36 
L 221.4 -36 
L 213.03 -36 
L 204.66 -36 
L 196.29 -36 
L 187.92 -36 
L 179.55 -36 
L 171.18 -36 
L 162.81 -36 
L 154.44 -36 
L 146.07 -36 
L 137.7 -36 
L 129.33 -36 
L 120.96 -36 
L 112.59 -36 
L 104.22 -36 
L 95.85 -36 
L 87.48 -36 
L 79.11 -36 
L 70.74 -36 
L 62.37 -36 
L 54 -36 
z
" style="stroke: #ff0000; stroke-opacity: 0.4"/>
    </defs>
    <g clip-path="url(#p00d98a6013)">
     <use xlink:href="#m93aba19ac1" x="0" y="288" style="fill: #ff0000; fill-opacity: 0.4; stroke: #ff0000; stroke-opacity: 0.4"/>
    </g>
   </g>
   <g id="PolyCollection_2">
    <path d="M 54 252 
L 54 96.362971 
L 62.37 100.25406 
L 70.74 104.145149 
L 79.11 108.036238 
L 87.48 111.927326 
L 95.85 115.818415 
L 104.22 119.708417 
L 112.59 123.599506 
L 120.96 127.490594 
L 129.33 131.381683 
L 137.7 135.272772 
L 146.07 139.163861 
L 154.44 143.053862 
L 162.81 146.945277 
L 171.18 150.836149 
L 179.55 154.727129 
L 187.92 158.618 
L 196.29 162.508872 
L 204.66 166.399852 
L 213.03 170.290723 
L 221.4 174.181703 
L 229.77 178.072574 
L 238.14 181.963554 
L 246.51 185.854426 
L 254.88 189.745297 
L 263.25 193.636277 
L 271.62 197.527149 
L 279.99 201.418129 
L 288.36 205.309 
L 296.73 209.199871 
L 305.1 213.090852 
L 313.47 216.981723 
L 321.84 220.872703 
L 330.21 224.763574 
L 338.58 228.654554 
L 346.95 232.545426 
L 355.32 236.436297 
L 363.69 240.327277 
L 372.06 244.21817 
L 380.43 248.109085 
L 388.8 252 
L 388.8 252 
L 388.8 252 
L 380.43 252 
L 372.06 252 
L 363.69 252 
L 355.32 252 
L 346.95 252 
L 338.58 252 
L 330.21 252 
L 321.84 252 
L 313.47 252 
L 305.1 252 
L 296.73 252 
L 288.36 252 
L 279.99 252 
L 271.62 252 
L 263.25 252 
L 254.88 252 
L 246.51 252 
L 238.14 252 
L 229.77 252 
L 221.4 252 
L 213.03 252 
L 204.66 252 
L 196.29 252 
L 187.92 252 
L 179.55 252 
L 171.18 252 
L 162.81 252 
L 154.44 252 
L 146.07 252 
L 137.7 252 
L 129.33 252 
L 120.96 252 
L 112.59 252 
L 104.22 252 
L 95.85 252 
L 87.48 252 
L 79.11 252 
L 70.74 252 
L 62.37 252 
L 54 252 
z
" clip-path="url(#p00d98a6013)" style="fill: #1f77b4; fill-opacity: 0.4"/>
   </g>
   <g id="matplotlib.axis_1">
    <g id="xtick_1">
     <g id="line2d_1">
      <defs>
       <path id="m9f3f1a72e1" d="M 0 0 
L 0 3.5 
" style="stroke: #000000; stroke-width: 0.8"/>
      </defs>
      <g>
       <use xlink:href="#m9f3f1a72e1" x="54" y="252" style="stroke: #000000; stroke-width: 0.8"/>
      </g>
     </g>
     <g id="line2d_2">
      <defs>
       <path id="m06267a479d" d="M 0 0 
L 0 -3.5 
" style="stroke: #000000; stroke-width: 0.8"/>
      </defs>
      <g>
       <use xlink:href="#m06267a479d" x="54" y="34.56" style="stroke: #000000; stroke-width: 0.8"/>
      </g>
     </g>
    </g>
    <g id="xtick_2">
     <g id="line2d_3">
      <g>
       <use xlink:href="#m9f3f1a72e1" x="87.48" y="252" style="stroke: #000000; stroke-width: 0.8"/>
      </g>
     </g>
     <g id="line2d_4">
      <g>
       <use xlink:href="#m06267a479d" x="87.48" y="34.56" style="stroke: #000000; stroke-width: 0.8"/>
      </g>
     </g>
    </g>
    <g id="xtick_3">
     <g id="line2d_5">
      <g>
       <use xlink:href="#m9f3f1a72e1" x="120.96" y="252" style="stroke: #000000; stroke-width: 0.8"/>
      </g>
     </g>
     <g id="line2d_6">
      <g>
       <use xlink:href="#m06267a479d" x="120.96" y="34.56" style="stroke: #000000; stroke-width: 0.8"/>
      </g>
     </g>
    </g>
    <g id="xtick_4">
     <g id="line2d_7">
      <g>
       <use xlink:href="#m9f3f1a72e1" x="154.44" y="252" style="stroke: #000000; stroke-width: 0.8"/>
      </g>
     </g>
     <g id="line2d_8">
      <g>
       <use xlink:href="#m06267a479d" x="154.44" y="34.56" style="stroke: #000000; stroke-width: 0.8"/>
      </g>
     </g>
    </g>
    <g id="xtick_5">
     <g id="line2d_9">
      <g>
       <use xlink:href="#m9f3f1a72e1" x="187.92" y="252" style="stroke: #000000; stroke-width: 0.8"/>
      </g>
     </g>
     <g id="line2d_10">
      <g>
       <use xlink:href="#m06267a479d" x="187.92" y="34.56" style="stroke: #000000; stroke-width: 0.8"/>
      </g>
     </g>
    </g>
    <g id="xtick_6">
     <g id="line2d_11">
      <g>
       <use xlink:href="#m9f3f1a72e1" x="221.4" y="252" style="stroke: #000000; stroke-width: 0.8"/>
      </g>
     </g>
     <g id="line2d_12">
      <g>
       <use xlink:href="#m06267a479d" x="221.4" y="34.56" style="stroke: #000000; stroke-width: 0.8"/>
      </g>
     </g>
    </g>
    <g id="xtick_7">
     <g id="line2d_13">
      <g>
       <use xlink:href="#m9f3f1a72e1" x="254.88" y="252" style="stroke: #000000; stroke-width: 0.8"/>
      </g>
     </g>
     <g id="line2d_14">
      <g>
       <use xlink:href="#m06267a479d" x="254.88" y="34.56" style="stroke: #000000; stroke-width: 0.8"/>
      </g>
     </g>
    </g>
    <g id="xtick_8">
     <g id="line2d_15">
      <g>
       <use xlink:href="#m9f3f1a72e1" x="288.36" y="252" style="stroke: #000000; stroke-width: 0.8"/>
      </g>
     </g>
     <g id="line2d_16">
      <g>
       <use xlink:href="#m06267a479d" x="288.36" y="34.56" style="stroke: #000000; stroke-width: 0.8"/>
      </g>
     </g>
    </g>
    <g id="xtick_9">
     <g id="line2d_17">
      <g>
       <use xlink:href="#m9f3f1a72e1" x="321.84" y="252" style="stroke: #000000; stroke-width: 0.8"/>
      </g>
     </g>
     <g id="line2d_18">
      <g>
       <use xlink:href="#m06267a479d" x="321.84" y="34.56" style="stroke: #000000; stroke-width: 0.8"/>
      </g>
     </g>
    </g>
    <g id="xtick_10">
     <g id="line2d_19">
      <g>
       <use xlink:href="#m9f3f1a72e1" x="355.32" y="252" style="stroke: #000000; stroke-width: 0.8"/>
      </g>
     </g>
     <g id="line2d_20">
      <g>
       <use xlink:href="#m06267a479d" x="355.32" y="34.56" style="stroke: #000000; stroke-width: 0.8"/>
      </g>
     </g>
    </g>
    <g id="xtick_11">
     <g id="line2d_21">
      <g>
       <use xlink:href="#m9f3f1a72e1" x="388.8" y="252" style="stroke: #000000; stroke-width: 0.8"/>
      </g>
     </g>
     <g id="line2d_22">
      <g>
       <use xlink:href="#m06267a479d" x="388.8" y="34.56" style="stroke: #000000; stroke-width: 0.8"/>
      </g>
     </g>
    </g>
   </g>
   <g id="matplotlib.axis_2">
    <g id="ytick_1">
     <g id="line2d_23">
      <defs>
       <path id="m356bddb206" d="M 0 0 
L -3.5 0 
" style="stroke: #000000; stroke-width: 0.8"/>
      </defs>
      <g>
       <use xlink:href="#m356bddb206" x="54" y="252" style="stroke: #000000; stroke-width: 0.8"/>
      </g>
     </g>
     <g id="line2d_24">
      <defs>
       <path id="mbe3516cd90" d="M 0 0 
L 3.5 0 
" style="stroke: #000000; stroke-width: 0.8"/>
      </defs>
      <g>
       <use xlink:href="#mbe3516cd90" x="388.8" y="252" style="stroke: #000000; stroke-width: 0.8"/>
      </g>
     </g>
    </g>
    <g id="ytick_2">
     <g id="line2d_25">
      <g>
       <use xlink:href="#m356bddb206" x="54" y="230.256" style="stroke: #000000; stroke-width: 0.8"/>
      </g>
     </g>
     <g id="line2d_26">
      <g>
       <use xlink:href="#mbe3516cd90" x="388.8" y="230.256" style="stroke: #000000; stroke-width: 0.8"/>
      </g>
     </g>
    </g>
    <g id="ytick_3">
     <g id="line2d_27">
      <g>
       <use xlink:href="#m356bddb206" x="54" y="208.512" style="stroke: #000000; stroke-width: 0.8"/>
      </g>
     </g>
     <g id="line2d_28">
      <g>
       <use xlink:href="#mbe3516cd90" x="388.8" y="208.512" style="stroke: #000000; stroke-width: 0.8"/>
      </g>
     </g>
    </g>
    <g id="ytick_4">
     <g id="line2d_29">
      <g>
       <use xlink:href="#m356bddb206" x="54" y="186.768" style="stroke: #000000; stroke-width: 0.8"/>
      </g>
     </g>
     <g id="line2d_30">
      <g>
       <use xlink:href="#mbe3516cd90" x="388.8" y="186.768" style="stroke: #000000; stroke-width: 0.8"/>
      </g>
     </g>
    </g>
    <g id="ytick_5">
     <g id="line2d_31">
      <g>
       <use xlink:href="#m356bddb206" x="54" y="165.024" style="stroke: #000000; stroke-width: 0.8"/>
      </g>
     </g>
     <g id="line2d_32">
      <g>
       <use xlink:href="#mbe3516cd90" x="388.8" y="165.024" style="stroke: #000000; stroke-width: 0.8"/>
      </g>
     </g>
    </g>
    <g id="ytick_6">
     <g id="line2d_33">
      <g>
       <use xlink:href="#m356bddb206" x="54" y="143.28" style="stroke: #000000; stroke-width: 0.8"/>
      </g>
     </g>
     <g id="line2d_34">
      <g>
       <use xlink:href="#mbe3516cd90" x="388.8" y="143.28" style="stroke: #000000; stroke-width: 0.8"/>
      </g>
     </g>
    </g>
    <g id="ytick_7">
     <g id="line2d_35">
      <g>
       <use xlink:href="#m356bddb206" x="54" y="121.536" style="stroke: #000000; stroke-width: 0.8"/>
      </g>
     </g>
     <g id="line2d_36">
      <g>
       <use xlink:href="#mbe3516cd90" x="388.8" y="121.536" style="stroke: #000000; stroke-width: 0.8"/>
      </g>
     </g>
    </g>
    <g id="ytick_8">
     <g id="line2d_37">
      <g>
       <use xlink:href="#m356bddb206" x="54" y="99.792" style="stroke: #000000; stroke-width: 0.8"/>
      </g>
     </g>
     <g id="line2d_38">
      <g>
       <use xlink:href="#mbe3516cd90" x="388.8" y="99.792" style="stroke: #000000; stroke-width: 0.8"/>
      </g>
     </g>
    </g>
    <g id="ytick_9">
     <g id="line2d_39">
      <g>
       <use xlink:href="#m356bddb206" x="54" y="78.048" style="stroke: #000000; stroke-width: 0.8"/>
      </g>
     </g>
     <g id="line2d_40">
      <g>
       <use xlink:href="#mbe3516cd90" x="388.8" y="78.048" style="stroke: #000000; stroke-width: 0.8"/>
      </g>
     </g>
    </g>
    <g id="ytick_10">
     <g id="line2d_41">
      <g>
       <use xlink:href="#m356bddb206" x="54" y="56.304" style="stroke: #000000; stroke-width: 0.8"/>
      </g>
     </g>
     <g id="line2d_42">
      <g>
       <use xlink:href="#mbe3516cd90" x="388.8" y="56.304" style="stroke: #000000; stroke-width: 0.8"/>
      </g>
     </g>
    </g>
    <g id="ytick_11">
     <g id="line2d_43">
      <g>
       <use xlink:href="#m356bddb206" x="54" y="34.56" style="stroke: #000000; stroke-width: 0.8"/>
      </g>
     </g>
     <g id="line2d_44">
      <g>
       <use xlink:href="#mbe3516cd90" x="388.8" y="34.56" style="stroke: #000000; stroke-width: 0.8"/>
      </g>
     </g>
    </g>
   </g>
   <g id="patch_3">
    <path d="M 54 252 
L 54 34.56 
" style="fill: none; stroke: #000000; stroke-width: 0.8; stroke-linejoin: miter; stroke-linecap: square"/>
   </g>
   <g id="patch_4">
    <path d="M 388.8 252 
L 388.8 34.56 
" style="fill: none; stroke: #000000; stroke-width: 0.8; stroke-linejoin: miter; stroke-linecap: square"/>
   </g>
   <g id="patch_5">
    <path d="M 54 252 
L 388.8 252 
" style="fill: none; stroke: #000000; stroke-width: 0.8; stroke-linejoin: miter; stroke-linecap: square"/>
   </g>
   <g id="patch_6">
    <path d="M 54 34.56 
L 388.8 34.56 
" style="fill: none; stroke: #000000; stroke-width: 0.8; stroke-linejoin: miter; stroke-linecap: square"/>
   </g>
  </g>
 </g>
 <defs>
  <clipPath id="p00d98a6013">
   <rect x="54" y="34.56" width="334.8" height="217.44"/>
  </clipPath>
 </defs>
</svg>
